<svg width="24" height="16" viewBox="0 0 24 16" fill="none" xmlns="http://www.w3.org/2000/svg">
<path d="M12 7.25734C12.3197 7.25734 12.5789 7.01462 12.5789 6.71522C12.5789 6.41581 12.3197 6.17309 12 6.17309C11.6803 6.17309 11.4211 6.41581 11.4211 6.71522C11.4211 7.01462 11.6803 7.25734 12 7.25734Z" stroke="white" stroke-opacity="0.4" stroke-linecap="round" stroke-linejoin="round"/>
<path d="M12 12.6786C14.8777 12.6786 17.2105 10.4941 17.2105 7.79947C17.2105 5.1048 14.8777 2.92033 12 2.92033C9.12231 2.92033 6.78947 5.1048 6.78947 7.79947C6.78947 10.4941 9.12231 12.6786 12 12.6786Z" stroke="white" stroke-opacity="0.4" stroke-linecap="round" stroke-linejoin="round"/>
<path d="M1 7.79947C1 7.79947 4.92857 0.751831 12 0.751831C19.0714 0.751831 23 7.79947 23 7.79947C23 7.79947 19.0714 14.8471 12 14.8471C4.92857 14.8471 1 7.79947 1 7.79947Z" stroke="white" stroke-opacity="0.4" stroke-linecap="round" stroke-linejoin="round"/>
</svg>
